<?xml version="1.0" encoding="utf-8"?>
<!-- Generator: Adobe Illustrator 23.0.1, SVG Export Plug-In . SVG Version: 6.00 Build 0)  -->
<svg version="1.1" id="Ebene_1" xmlns="http://www.w3.org/2000/svg" xmlns:xlink="http://www.w3.org/1999/xlink" x="0px" y="0px"
	 width="310px" height="74px" viewBox="0 0 310 74" style="enable-background:new 0 0 310 74;" xml:space="preserve">
<style type="text/css">
	.st0{clip-path:url(#SVGID_2_);fill:#FFC20D;}
	.st1{clip-path:url(#SVGID_4_);fill:#FFC20D;}
	.st2{clip-path:url(#SVGID_6_);fill:#FFC20D;}
	.st3{clip-path:url(#SVGID_8_);fill:#292B2B;}
	.st4{clip-path:url(#SVGID_10_);fill:#292B2B;}
	.st5{clip-path:url(#SVGID_12_);fill:#292B2B;}
	.st6{clip-path:url(#SVGID_14_);fill:#292B2B;}
	.st7{clip-path:url(#SVGID_16_);fill:#292B2B;}
	.st8{clip-path:url(#SVGID_18_);fill:#292B2B;}
	.st9{clip-path:url(#SVGID_20_);fill:#292B2B;}
	.st10{clip-path:url(#SVGID_22_);fill:#292B2B;}
	.st11{clip-path:url(#SVGID_24_);fill:#292B2B;}
	.st12{clip-path:url(#SVGID_26_);fill:#292B2B;}
	.st13{clip-path:url(#SVGID_28_);fill:#292B2B;}
	.st14{clip-path:url(#SVGID_30_);fill:#292B2B;}
	.st15{clip-path:url(#SVGID_32_);fill:#292B2B;}
	.st16{clip-path:url(#SVGID_34_);fill:#292B2B;}
	.st17{clip-path:url(#SVGID_36_);fill:#292B2B;}
	.st18{clip-path:url(#SVGID_38_);fill:#292B2B;}
	.st19{clip-path:url(#SVGID_40_);fill:#292B2B;}
	.st20{clip-path:url(#SVGID_42_);fill:#292B2B;}
	.st21{clip-path:url(#SVGID_44_);fill:#292B2B;}
	.st22{clip-path:url(#SVGID_46_);fill:#292B2B;}
	.st23{clip-path:url(#SVGID_48_);fill:#292B2B;}
	.st24{clip-path:url(#SVGID_50_);fill:#292B2B;}
	.st25{clip-path:url(#SVGID_52_);fill:#292B2B;}
	.st26{clip-path:url(#SVGID_54_);fill:#292B2B;}
	.st27{clip-path:url(#SVGID_56_);fill:#292B2B;}
	.st28{clip-path:url(#SVGID_58_);fill:#292B2B;}
	.st29{fill:#292B2B;}
</style>
<g>
	<g>
		<g>
			<defs>
				<path id="SVGID_1_" d="M52.32,23.15c0,2.45-2,4.45-4.45,4.45s-4.34-2-4.34-4.45s2-4.34,4.34-4.34
					C50.32,18.7,52.32,20.7,52.32,23.15"/>
			</defs>
			<clipPath id="SVGID_2_">
				<use xlink:href="#SVGID_1_"  style="overflow:visible;"/>
			</clipPath>
			<rect x="37.96" y="13.13" class="st0" width="19.93" height="19.93"/>
		</g>
	</g>
	<g>
		<g>
			<defs>
				<polygon id="SVGID_3_" points="40.85,14.25 31.95,14.25 21.37,53.99 51.43,53.99 53.77,45.19 32.73,45.19 				"/>
			</defs>
			<clipPath id="SVGID_4_">
				<use xlink:href="#SVGID_3_"  style="overflow:visible;"/>
			</clipPath>
			<rect x="15.81" y="8.68" class="st1" width="43.53" height="50.87"/>
		</g>
	</g>
	<g>
		<g>
			<defs>
				<path id="SVGID_5_" d="M36.4,62.89c-14.69,0-26.49-11.91-26.49-26.49S21.71,9.91,36.4,9.91S62.89,21.82,62.89,36.4
					S50.98,62.89,36.4,62.89 M1,36.4c0,19.48,15.81,35.4,35.4,35.4c19.48,0,35.4-15.81,35.4-35.4C71.8,16.92,55.99,1,36.4,1
					C16.81,1,1,16.92,1,36.4z"/>
			</defs>
			<clipPath id="SVGID_6_">
				<use xlink:href="#SVGID_5_"  style="overflow:visible;"/>
			</clipPath>
			<rect x="-4.57" y="-4.57" class="st2" width="81.82" height="81.82"/>
		</g>
	</g>
	<g>
		<g>
			<defs>
				<path id="SVGID_7_" d="M91.39,35.18c0.67,0,1.22-0.11,1.67-0.45c0.45-0.33,0.56-0.78,0.56-1.45c0-1.22-0.78-1.89-2.45-1.89
					h-1.78v3.9h2V35.18z M92.06,29.28c1.34,0,2.34,0.33,3.12,1.11c0.78,0.78,1.22,1.67,1.22,2.89s-0.45,2.12-1.22,2.89
					c-0.78,0.78-1.89,1.11-3.23,1.11h-2.56v5.79h-2.67v-13.8H92.06z"/>
			</defs>
			<clipPath id="SVGID_8_">
				<use xlink:href="#SVGID_7_"  style="overflow:visible;"/>
			</clipPath>
			<rect x="81.15" y="23.71" class="st3" width="20.82" height="24.94"/>
		</g>
	</g>
	<g>
		<g>
			<defs>
				<path id="SVGID_9_" d="M104.53,33.73c0.33,0,0.67,0.11,1,0.22s0.67,0.33,1.11,0.78l-0.89,2.12c-0.67-0.56-1.22-0.78-1.67-0.78
					c-0.33,0-0.78,0.11-1.11,0.45c-0.33,0.33-0.67,0.67-0.89,1.11c-0.22,0.45-0.33,0.89-0.33,1.34v4.12H99.3v-9.24h2.45v2.34l0,0
					c0.45-0.89,0.89-1.56,1.34-1.89C103.53,33.84,103.97,33.73,104.53,33.73"/>
			</defs>
			<clipPath id="SVGID_10_">
				<use xlink:href="#SVGID_9_"  style="overflow:visible;"/>
			</clipPath>
			<rect x="93.73" y="28.16" class="st4" width="18.48" height="20.59"/>
		</g>
	</g>
	<g>
		<g>
			<defs>
				<path id="SVGID_11_" d="M110.43,38.4c0,0.89,0.22,1.67,0.67,2.23c0.45,0.56,1,0.78,1.78,0.78s1.45-0.22,1.89-0.78
					c0.45-0.56,0.67-1.34,0.67-2.23s-0.22-1.67-0.67-2.12c-0.45-0.56-1.11-0.78-1.89-0.78s-1.34,0.22-1.78,0.78
					C110.65,36.85,110.43,37.51,110.43,38.4 M112.99,33.73c1,0,1.89,0.22,2.67,0.56c0.78,0.45,1.45,1,1.78,1.67
					c0.45,0.78,0.67,1.56,0.67,2.45c0,1-0.22,1.78-0.67,2.56c-0.45,0.67-1,1.34-1.78,1.67c-0.78,0.45-1.67,0.67-2.67,0.67
					c-1,0-1.89-0.22-2.67-0.67c-0.78-0.45-1.45-1-1.78-1.67c-0.45-0.67-0.67-1.56-0.67-2.56c0-0.89,0.22-1.78,0.67-2.45
					c0.45-0.67,1-1.34,1.78-1.67C111.1,33.84,111.99,33.73,112.99,33.73"/>
			</defs>
			<clipPath id="SVGID_12_">
				<use xlink:href="#SVGID_11_"  style="overflow:visible;"/>
			</clipPath>
			<rect x="102.3" y="28.16" class="st5" width="21.26" height="20.71"/>
		</g>
	</g>
	<g>
		<g>
			<defs>
				<path id="SVGID_13_" d="M124.9,29.05c0.33,0,0.56,0,0.89,0.11c0.33,0,0.56,0.11,0.78,0.22v2c-0.33-0.11-0.67-0.11-1.11-0.11
					c-0.56,0-1,0.11-1.34,0.45c-0.33,0.33-0.45,0.78-0.45,1.56v0.67h1.56v1.89h-1.56v7.24h-2.45v-7.35h-1.34v-1.89h1.34v-0.67
					c0-1.22,0.33-2.23,1-3.01C122.9,29.5,123.79,29.05,124.9,29.05"/>
			</defs>
			<clipPath id="SVGID_14_">
				<use xlink:href="#SVGID_13_"  style="overflow:visible;"/>
			</clipPath>
			<rect x="114.32" y="23.49" class="st6" width="17.7" height="25.16"/>
		</g>
	</g>
	<g>
		<g>
			<defs>
				<path id="SVGID_15_" d="M133.81,37.51c-0.11-0.67-0.22-1.22-0.67-1.56c-0.33-0.33-0.78-0.56-1.45-0.56s-1.11,0.22-1.45,0.56
					c-0.33,0.33-0.56,0.89-0.67,1.56H133.81z M131.69,33.73c1.34,0,2.45,0.45,3.23,1.34c0.78,0.89,1.22,2.12,1.22,3.56v0.33h-6.57
					c0.11,0.78,0.45,1.45,0.89,1.89c0.56,0.45,1.22,0.67,2.12,0.67c0.56,0,1.11-0.11,1.67-0.33c0.56-0.22,1.11-0.56,1.67-0.89v1.78
					c-1.11,0.78-2.45,1.11-3.9,1.11s-2.67-0.45-3.56-1.34c-0.89-0.89-1.34-2-1.34-3.45s0.45-2.56,1.34-3.45
					C129.13,34.17,130.24,33.73,131.69,33.73z"/>
			</defs>
			<clipPath id="SVGID_16_">
				<use xlink:href="#SVGID_15_"  style="overflow:visible;"/>
			</clipPath>
			<rect x="121.45" y="28.16" class="st7" width="20.15" height="20.71"/>
		</g>
	</g>
	<g>
		<g>
			<defs>
				<path id="SVGID_17_" d="M142.04,33.73c0.56,0,1,0.11,1.45,0.22s0.89,0.33,1.45,0.56v1.89c-0.45-0.33-1-0.56-1.45-0.67
					c-0.56-0.22-1-0.22-1.45-0.22c-0.33,0-0.67,0.11-0.78,0.22c-0.22,0.11-0.33,0.33-0.33,0.56c0,0.11,0.11,0.22,0.22,0.45
					c0.11,0.11,0.67,0.45,1.34,0.78c1,0.56,1.78,1,2.23,1.45c0.45,0.45,0.67,1,0.67,1.67c0,0.89-0.33,1.56-0.89,2.12
					c-0.67,0.56-1.45,0.78-2.56,0.78c-0.67,0-1.22-0.11-1.89-0.22c-0.56-0.11-1-0.33-1.45-0.56v-2c1.22,0.67,2.23,1,3.01,1
					c0.45,0,0.78-0.11,1-0.22c0.22-0.11,0.33-0.33,0.33-0.56c0-0.11,0-0.22-0.11-0.45c-0.11-0.11-0.22-0.22-0.45-0.33
					c-0.22-0.11-0.78-0.45-1.78-0.89c-0.78-0.33-1.34-0.78-1.67-1.11c-0.33-0.45-0.56-0.89-0.56-1.45c0-0.78,0.33-1.45,1-2
					C140.15,33.95,140.93,33.73,142.04,33.73"/>
			</defs>
			<clipPath id="SVGID_18_">
				<use xlink:href="#SVGID_17_"  style="overflow:visible;"/>
			</clipPath>
			<rect x="132.92" y="28.16" class="st8" width="17.92" height="20.71"/>
		</g>
	</g>
	<g>
		<g>
			<defs>
				<path id="SVGID_19_" d="M151.17,33.73c0.56,0,1,0.11,1.45,0.22c0.45,0.11,0.89,0.33,1.45,0.56v1.89c-0.45-0.33-1-0.56-1.45-0.67
					c-0.56-0.22-1-0.22-1.45-0.22c-0.33,0-0.67,0.11-0.78,0.22c-0.22,0.11-0.33,0.33-0.33,0.56c0,0.11,0.11,0.22,0.22,0.45
					c0.11,0.11,0.67,0.45,1.34,0.78c1,0.56,1.78,1,2.23,1.45c0.45,0.45,0.67,1,0.67,1.67c0,0.89-0.33,1.56-0.89,2.12
					c-0.67,0.56-1.45,0.78-2.56,0.78c-0.67,0-1.22-0.11-1.89-0.22c-0.56-0.11-1-0.33-1.45-0.56v-2c1.22,0.67,2.23,1,3.01,1
					c0.45,0,0.78-0.11,1-0.22c0.22-0.11,0.33-0.33,0.33-0.56c0-0.11,0-0.22-0.11-0.45c-0.11-0.11-0.22-0.22-0.45-0.33
					c-0.22-0.11-0.78-0.45-1.78-0.89c-0.78-0.33-1.34-0.78-1.67-1.11s-0.56-0.89-0.56-1.45c0-0.78,0.33-1.45,1-2
					C149.28,33.95,150.17,33.73,151.17,33.73"/>
			</defs>
			<clipPath id="SVGID_20_">
				<use xlink:href="#SVGID_19_"  style="overflow:visible;"/>
			</clipPath>
			<rect x="142.15" y="28.16" class="st9" width="17.92" height="20.71"/>
		</g>
	</g>
	<g>
		<g>
			<defs>
				<path id="SVGID_21_" d="M157.52,43.08h2.45v-9.24h-2.45V43.08z M158.74,29.61c0.33,0,0.67,0.11,1,0.45
					c0.22,0.22,0.45,0.56,0.45,1c0,0.33-0.11,0.67-0.45,1c-0.22,0.33-0.56,0.45-1,0.45c-0.33,0-0.67-0.11-1-0.45
					c-0.22-0.33-0.45-0.56-0.45-1c0-0.33,0.11-0.67,0.45-1C157.96,29.72,158.3,29.61,158.74,29.61z"/>
			</defs>
			<clipPath id="SVGID_22_">
				<use xlink:href="#SVGID_21_"  style="overflow:visible;"/>
			</clipPath>
			<rect x="151.73" y="24.04" class="st10" width="13.92" height="24.6"/>
		</g>
	</g>
	<g>
		<g>
			<defs>
				<path id="SVGID_23_" d="M165.53,38.4c0,0.89,0.22,1.67,0.67,2.23c0.45,0.56,1.11,0.78,1.78,0.78c0.78,0,1.45-0.22,1.89-0.78
					c0.45-0.56,0.67-1.34,0.67-2.23s-0.22-1.67-0.67-2.12c-0.45-0.56-1.11-0.78-1.89-0.78c-0.78,0-1.34,0.22-1.78,0.78
					C165.75,36.85,165.53,37.51,165.53,38.4 M167.98,33.73c1,0,1.89,0.22,2.67,0.56c0.78,0.45,1.45,1,1.78,1.67
					c0.45,0.78,0.67,1.56,0.67,2.45c0,1-0.22,1.78-0.67,2.56c-0.45,0.67-1,1.34-1.78,1.67c-0.78,0.45-1.67,0.67-2.67,0.67
					s-1.89-0.22-2.67-0.67c-0.78-0.45-1.45-1-1.78-1.67c-0.45-0.67-0.67-1.56-0.67-2.56c0-0.89,0.22-1.78,0.67-2.45
					c0.45-0.67,1-1.34,1.78-1.67C166.2,33.84,167.09,33.73,167.98,33.73"/>
			</defs>
			<clipPath id="SVGID_24_">
				<use xlink:href="#SVGID_23_"  style="overflow:visible;"/>
			</clipPath>
			<rect x="157.41" y="28.16" class="st11" width="21.26" height="20.71"/>
		</g>
	</g>
	<g>
		<g>
			<defs>
				<path id="SVGID_25_" d="M181.45,33.73c1,0,1.78,0.33,2.34,1c0.56,0.67,0.89,1.56,0.89,2.56v5.79h-2.45v-5.57
					c0-0.56-0.11-1.11-0.45-1.45c-0.33-0.33-0.67-0.56-1.22-0.56c-0.33,0-0.78,0.11-1.11,0.33c-0.33,0.22-0.67,0.56-1.11,1.11v6.12
					h-2.45v-9.24h2.45v1.34c0.45-0.56,0.89-0.89,1.34-1.11C180.34,33.84,180.89,33.73,181.45,33.73"/>
			</defs>
			<clipPath id="SVGID_26_">
				<use xlink:href="#SVGID_25_"  style="overflow:visible;"/>
			</clipPath>
			<rect x="170.54" y="28.16" class="st12" width="19.7" height="20.59"/>
		</g>
	</g>
	<g>
		<g>
			<defs>
				<path id="SVGID_27_" d="M189.91,40.63c0,0.33,0.11,0.56,0.33,0.78s0.45,0.33,0.78,0.33c0.56,0,1.11-0.22,1.56-0.78v-2.34
					c-0.67,0.22-1.22,0.45-1.56,0.67c-0.33,0.22-0.67,0.45-0.89,0.67C190.02,40.07,189.91,40.3,189.91,40.63 M191.36,33.73
					c1.22,0,2.12,0.22,2.67,0.78c0.67,0.56,0.89,1.22,0.89,2.12v4.56c0,0.33,0.11,0.56,0.45,0.56c0.11,0,0.33,0,0.45-0.11
					c0.22-0.11,0.45-0.22,0.56-0.33v1.45c-0.89,0.56-1.67,0.78-2.34,0.78c-0.45,0-0.78-0.11-1-0.22c-0.22-0.11-0.45-0.45-0.45-0.78
					c-0.89,0.67-1.89,1-2.78,1c-0.67,0-1.22-0.22-1.67-0.67c-0.45-0.45-0.67-1-0.67-1.56c0-0.78,0.22-1.45,0.67-1.89
					c0.45-0.45,1.34-0.89,2.45-1.22l2-0.56v-0.45c0-0.89-0.56-1.34-1.67-1.34c-0.56,0-1.11,0.11-1.67,0.33
					c-0.56,0.22-1.11,0.67-1.56,1.11v-2.23C188.8,34.06,190.02,33.73,191.36,33.73"/>
			</defs>
			<clipPath id="SVGID_28_">
				<use xlink:href="#SVGID_27_"  style="overflow:visible;"/>
			</clipPath>
			<rect x="181.9" y="28.16" class="st13" width="20.15" height="20.71"/>
		</g>
	</g>
	<g>
		<g>
			<defs>
				<rect id="SVGID_29_" x="198.93" y="29.28" width="2.45" height="13.8"/>
			</defs>
			<clipPath id="SVGID_30_">
				<use xlink:href="#SVGID_29_"  style="overflow:visible;"/>
			</clipPath>
			<rect x="193.36" y="23.71" class="st14" width="13.58" height="24.94"/>
		</g>
	</g>
	<g>
		<g>
			<defs>
				<rect id="SVGID_31_" x="86.83" y="50.87" width="2.67" height="13.8"/>
			</defs>
			<clipPath id="SVGID_32_">
				<use xlink:href="#SVGID_31_"  style="overflow:visible;"/>
			</clipPath>
			<rect x="81.26" y="45.31" class="st15" width="13.8" height="24.94"/>
		</g>
	</g>
	<g>
		<g>
			<defs>
				<path id="SVGID_33_" d="M98.63,55.32c1,0,1.78,0.33,2.34,1c0.56,0.67,0.89,1.56,0.89,2.56v5.9h-2.45v-5.68
					c0-0.56-0.11-1.11-0.45-1.45c-0.33-0.33-0.67-0.56-1.22-0.56c-0.33,0-0.78,0.11-1.11,0.33c-0.33,0.22-0.67,0.56-1.11,1.11v6.12
					h-2.45v-9.24h2.45v1.34c0.45-0.56,0.89-0.89,1.34-1.11C97.52,55.44,98.07,55.32,98.63,55.32"/>
			</defs>
			<clipPath id="SVGID_34_">
				<use xlink:href="#SVGID_33_"  style="overflow:visible;"/>
			</clipPath>
			<rect x="87.72" y="49.76" class="st16" width="19.7" height="20.59"/>
		</g>
	</g>
	<g>
		<g>
			<defs>
				<path id="SVGID_35_" d="M108.2,55.32c0.56,0,1,0.11,1.45,0.22c0.45,0.11,0.89,0.33,1.45,0.56v2c-0.45-0.33-1-0.56-1.45-0.67
					c-0.56-0.22-1-0.22-1.45-0.22c-0.33,0-0.67,0.11-0.78,0.22c-0.22,0.11-0.33,0.33-0.33,0.56c0,0.11,0.11,0.22,0.22,0.45
					c0.11,0.11,0.67,0.45,1.34,0.78c1,0.56,1.78,1,2.23,1.45c0.45,0.45,0.67,1,0.67,1.67c0,0.89-0.33,1.56-0.89,2.12
					c-0.67,0.56-1.45,0.78-2.56,0.78c-0.67,0-1.22-0.11-1.89-0.22c-0.56-0.11-1-0.33-1.45-0.56v-2c1.22,0.67,2.23,1,3.01,1
					c0.45,0,0.78-0.11,1-0.22c0.22-0.11,0.33-0.33,0.33-0.56c0-0.11,0-0.22-0.11-0.45c-0.11-0.11-0.22-0.22-0.45-0.33
					c-0.22-0.11-0.78-0.45-1.78-0.89c-0.78-0.33-1.34-0.78-1.67-1.11c-0.33-0.45-0.56-0.89-0.56-1.45c0-0.78,0.33-1.45,1-2
					C106.42,55.55,107.2,55.32,108.2,55.32"/>
			</defs>
			<clipPath id="SVGID_36_">
				<use xlink:href="#SVGID_35_"  style="overflow:visible;"/>
			</clipPath>
			<rect x="99.18" y="49.76" class="st17" width="17.92" height="20.71"/>
		</g>
	</g>
	<g>
		<g>
			<defs>
				<path id="SVGID_37_" d="M117,52.99h0.22v2.45h3.12v1.89h-3.12v4.23c0,0.45,0.11,0.78,0.33,1c0.22,0.22,0.56,0.33,1,0.33
					c0.56,0,1.22-0.22,2-0.67v2c-0.89,0.33-1.67,0.56-2.45,0.56c-1,0-1.89-0.33-2.45-0.89c-0.56-0.56-0.89-1.34-0.89-2.34v-4.45
					h-1.45v-0.45L117,52.99z"/>
			</defs>
			<clipPath id="SVGID_38_">
				<use xlink:href="#SVGID_37_"  style="overflow:visible;"/>
			</clipPath>
			<rect x="107.76" y="47.42" class="st18" width="18.37" height="23.04"/>
		</g>
	</g>
	<g>
		<g>
			<defs>
				<path id="SVGID_39_" d="M123.01,64.68h2.45v-9.24h-2.45V64.68z M124.23,51.21c0.33,0,0.67,0.11,1,0.45
					c0.22,0.22,0.45,0.56,0.45,1c0,0.33-0.11,0.67-0.45,1c-0.22,0.33-0.56,0.45-1,0.45c-0.33,0-0.67-0.11-1-0.45
					c-0.22-0.33-0.45-0.56-0.45-1c0-0.33,0.11-0.67,0.45-1C123.56,51.32,123.9,51.21,124.23,51.21z"/>
			</defs>
			<clipPath id="SVGID_40_">
				<use xlink:href="#SVGID_39_"  style="overflow:visible;"/>
			</clipPath>
			<rect x="117.33" y="45.64" class="st19" width="13.92" height="24.6"/>
		</g>
	</g>
	<g>
		<g>
			<defs>
				<path id="SVGID_41_" d="M131.58,52.99h0.22v2.45h3.12v1.89h-3.12v4.23c0,0.45,0.11,0.78,0.33,1c0.22,0.22,0.56,0.33,1,0.33
					c0.56,0,1.22-0.22,2-0.67v2c-0.89,0.33-1.67,0.56-2.45,0.56c-1,0-1.89-0.33-2.45-0.89c-0.56-0.56-0.89-1.34-0.89-2.34v-4.45
					h-1.45v-0.45L131.58,52.99z"/>
			</defs>
			<clipPath id="SVGID_42_">
				<use xlink:href="#SVGID_41_"  style="overflow:visible;"/>
			</clipPath>
			<rect x="122.34" y="47.42" class="st20" width="18.37" height="23.04"/>
		</g>
	</g>
	<g>
		<g>
			<defs>
				<path id="SVGID_43_" d="M139.82,55.44v5.68c0,0.56,0.11,1,0.45,1.34s0.67,0.45,1.22,0.45c0.45,0,0.78-0.11,1.22-0.33
					c0.33-0.22,0.67-0.56,0.89-1.11v-6.12h2.45v9.24h-2.45v-1.22c-0.89,1-1.78,1.45-2.89,1.45c-1,0-1.78-0.33-2.45-1
					c-0.56-0.67-0.89-1.45-0.89-2.56v-5.9h2.45V55.44z"/>
			</defs>
			<clipPath id="SVGID_44_">
				<use xlink:href="#SVGID_43_"  style="overflow:visible;"/>
			</clipPath>
			<rect x="131.8" y="49.87" class="st21" width="19.7" height="20.59"/>
		</g>
	</g>
	<g>
		<g>
			<defs>
				<path id="SVGID_45_" d="M151.95,52.99h0.22v2.45h3.12v1.89h-3.12v4.23c0,0.45,0.11,0.78,0.33,1c0.22,0.22,0.56,0.33,1,0.33
					c0.56,0,1.22-0.22,2-0.67v2c-0.89,0.33-1.67,0.56-2.45,0.56c-1,0-1.89-0.33-2.45-0.89c-0.56-0.56-0.89-1.34-0.89-2.34v-4.45
					h-1.45v-0.45L151.95,52.99z"/>
			</defs>
			<clipPath id="SVGID_46_">
				<use xlink:href="#SVGID_45_"  style="overflow:visible;"/>
			</clipPath>
			<rect x="142.71" y="47.42" class="st22" width="18.37" height="23.04"/>
		</g>
	</g>
	<g>
		<g>
			<defs>
				<path id="SVGID_47_" d="M164.2,59.11c-0.11-0.67-0.22-1.22-0.67-1.56c-0.33-0.33-0.78-0.56-1.45-0.56
					c-0.67,0-1.11,0.22-1.45,0.56c-0.33,0.33-0.56,0.89-0.67,1.56H164.2z M162.08,55.32c1.34,0,2.45,0.45,3.23,1.34
					c0.78,0.89,1.22,2.12,1.22,3.56v0.33h-6.57c0.11,0.78,0.45,1.45,0.89,1.89c0.56,0.45,1.22,0.67,2.12,0.67
					c0.56,0,1.11-0.11,1.67-0.33c0.56-0.22,1.11-0.56,1.67-0.89v1.78c-1.11,0.78-2.45,1.11-3.9,1.11s-2.67-0.45-3.56-1.34
					c-0.89-0.89-1.34-2-1.34-3.45s0.45-2.56,1.34-3.45C159.63,55.77,160.75,55.32,162.08,55.32z"/>
			</defs>
			<clipPath id="SVGID_48_">
				<use xlink:href="#SVGID_47_"  style="overflow:visible;"/>
			</clipPath>
			<rect x="151.84" y="49.76" class="st23" width="20.15" height="20.71"/>
		</g>
	</g>
	<g>
		<g>
			<defs>
				<polygon id="SVGID_49_" points="89.39,7.57 89.39,19.37 96.07,19.37 96.07,21.37 86.72,21.37 86.72,7.57 				"/>
			</defs>
			<clipPath id="SVGID_50_">
				<use xlink:href="#SVGID_49_"  style="overflow:visible;"/>
			</clipPath>
			<rect x="81.15" y="2" class="st24" width="20.48" height="24.94"/>
		</g>
	</g>
	<g>
		<g>
			<defs>
				<path id="SVGID_51_" d="M98.74,21.37h2.45v-9.24h-2.45V21.37z M99.96,7.9c0.33,0,0.67,0.11,1,0.45
					c0.22,0.22,0.33,0.56,0.33,0.89s-0.11,0.67-0.45,1c-0.22,0.33-0.56,0.45-1,0.45c-0.33,0-0.67-0.11-1-0.45
					c-0.22-0.33-0.45-0.56-0.45-1c0-0.33,0.11-0.67,0.45-1C99.3,8.01,99.63,7.9,99.96,7.9z"/>
			</defs>
			<clipPath id="SVGID_52_">
				<use xlink:href="#SVGID_51_"  style="overflow:visible;"/>
			</clipPath>
			<rect x="93.06" y="2.34" class="st25" width="13.92" height="24.6"/>
		</g>
	</g>
	<g>
		<g>
			<defs>
				<path id="SVGID_53_" d="M110.09,12.02c1,0,1.78,0.33,2.34,1c0.56,0.67,0.89,1.56,0.89,2.56v5.9h-2.45v-5.68
					c0-0.56-0.11-1.11-0.45-1.45c-0.33-0.33-0.67-0.56-1.22-0.56c-0.33,0-0.78,0.11-1.11,0.33c-0.33,0.22-0.67,0.56-1.11,1.11v6.12
					h-2.45v-9.24h2.45v1.34c0.45-0.56,0.89-0.89,1.34-1.11C108.98,12.13,109.54,12.02,110.09,12.02"/>
			</defs>
			<clipPath id="SVGID_54_">
				<use xlink:href="#SVGID_53_"  style="overflow:visible;"/>
			</clipPath>
			<rect x="99.07" y="6.45" class="st26" width="19.7" height="20.59"/>
		</g>
	</g>
	<g>
		<g>
			<defs>
				<path id="SVGID_55_" d="M119,12.13v5.68c0,0.56,0.11,1,0.45,1.34c0.33,0.33,0.67,0.45,1.22,0.45c0.45,0,0.78-0.11,1.22-0.33
					c0.33-0.22,0.67-0.56,0.89-1.11v-6.12h2.45v9.24h-2.45v-1.22c-0.89,1-1.78,1.45-2.89,1.45c-1,0-1.78-0.33-2.45-1
					c-0.56-0.67-0.89-1.45-0.89-2.56v-5.9H119V12.13z"/>
			</defs>
			<clipPath id="SVGID_56_">
				<use xlink:href="#SVGID_55_"  style="overflow:visible;"/>
			</clipPath>
			<rect x="110.98" y="6.57" class="st27" width="19.7" height="20.59"/>
		</g>
	</g>
	<g>
		<g>
			<defs>
				<polygon id="SVGID_57_" points="130.35,12.13 132.69,15.03 134.92,12.13 137.81,12.13 134.14,16.7 138.15,21.37 135.14,21.37 
					132.69,18.37 130.24,21.37 127.46,21.37 131.25,16.7 127.46,12.13 				"/>
			</defs>
			<clipPath id="SVGID_58_">
				<use xlink:href="#SVGID_57_"  style="overflow:visible;"/>
			</clipPath>
			<rect x="121.89" y="6.57" class="st28" width="21.82" height="20.37"/>
		</g>
	</g>
</g>
<g>
	<path class="st29" d="M233.14,29.36v11.58h6.62V43h-9.26V29.36H233.14z"/>
	<path class="st29" d="M245.91,33.7c1.34,0,2.4,0.43,3.18,1.29s1.17,2.05,1.17,3.56v0.36h-6.46c0.1,0.81,0.4,1.44,0.91,1.88
		s1.21,0.66,2.1,0.66c0.57,0,1.12-0.1,1.66-0.3s1.08-0.5,1.65-0.9v1.79c-1.07,0.76-2.36,1.13-3.89,1.13c-1.44,0-2.61-0.43-3.53-1.3
		s-1.37-2.02-1.37-3.46c0-1.39,0.42-2.52,1.26-3.4S244.55,33.7,245.91,33.7z M248.01,37.46c-0.07-0.66-0.27-1.18-0.61-1.56
		s-0.8-0.56-1.4-0.56c-0.61,0-1.09,0.18-1.46,0.54s-0.6,0.89-0.7,1.58H248.01z"/>
	<path class="st29" d="M256.09,33.7c1.17,0,2.07,0.25,2.69,0.75s0.93,1.19,0.93,2.08V41c0,0.35,0.14,0.52,0.42,0.52
		c0.12,0,0.28-0.05,0.49-0.15s0.39-0.22,0.53-0.35v1.39c-0.84,0.51-1.61,0.77-2.3,0.77c-0.43,0-0.76-0.07-0.99-0.21
		s-0.39-0.4-0.48-0.76c-0.92,0.65-1.84,0.98-2.76,0.98c-0.66,0-1.22-0.22-1.69-0.66s-0.71-0.97-0.71-1.59c0-0.79,0.23-1.41,0.7-1.87
		s1.29-0.85,2.46-1.19l1.94-0.57v-0.42c0-0.89-0.54-1.34-1.62-1.34c-0.55,0-1.1,0.13-1.65,0.38s-1.04,0.63-1.49,1.12v-2.16
		C253.54,34.1,254.72,33.7,256.09,33.7z M254.62,40.56c0,0.33,0.11,0.6,0.32,0.8s0.47,0.3,0.79,0.3c0.53,0,1.05-0.24,1.58-0.72v-2.4
		c-0.67,0.23-1.2,0.44-1.58,0.64s-0.66,0.41-0.84,0.62S254.62,40.26,254.62,40.56z"/>
	<path class="st29" d="M268.2,33.7c0.32,0,0.63,0.07,0.94,0.21s0.67,0.38,1.08,0.72l-0.86,2.1c-0.7-0.52-1.26-0.78-1.68-0.78
		c-0.37,0-0.74,0.14-1.1,0.42s-0.65,0.64-0.87,1.1s-0.33,0.91-0.33,1.37V43h-2.4v-9.12h2.4v2.32h0.04c0.44-0.88,0.88-1.52,1.32-1.91
		S267.67,33.7,268.2,33.7z"/>
	<path class="st29" d="M277.23,33.7c0.98,0,1.76,0.32,2.34,0.96s0.87,1.49,0.87,2.53V43h-2.39v-5.56c0-0.59-0.14-1.06-0.42-1.41
		s-0.67-0.52-1.16-0.52c-0.37,0-0.72,0.11-1.04,0.33s-0.68,0.58-1.07,1.09V43h-2.4v-9.12h2.4v1.28c0.44-0.52,0.9-0.89,1.36-1.12
		S276.68,33.7,277.23,33.7z"/>
	<path class="st29" d="M284.48,29.66c0.37,0,0.69,0.13,0.96,0.4s0.4,0.59,0.4,0.96c0,0.36-0.13,0.68-0.4,0.95s-0.58,0.42-0.96,0.42
		c-0.36,0-0.68-0.14-0.95-0.42s-0.41-0.59-0.41-0.95c0-0.38,0.14-0.7,0.41-0.96S284.12,29.66,284.48,29.66z M285.68,33.88V43h-2.4
		v-9.12H285.68z"/>
	<path class="st29" d="M293.87,33.7c0.98,0,1.76,0.32,2.34,0.96s0.87,1.49,0.87,2.53V43h-2.39v-5.56c0-0.59-0.14-1.06-0.42-1.41
		s-0.67-0.52-1.16-0.52c-0.37,0-0.72,0.11-1.04,0.33s-0.68,0.58-1.07,1.09V43h-2.4v-9.12h2.4v1.28c0.44-0.52,0.9-0.89,1.36-1.12
		S293.32,33.7,293.87,33.7z"/>
	<path class="st29" d="M308.13,33.88v1.7h-1.56c0.25,0.31,0.43,0.6,0.53,0.86s0.15,0.55,0.15,0.85c0,0.73-0.27,1.4-0.82,2
		c-0.48,0.53-1.31,0.87-2.48,1.03c-0.63,0.08-1.05,0.17-1.25,0.27s-0.31,0.26-0.31,0.46c0,0.19,0.12,0.33,0.38,0.43
		s0.65,0.2,1.21,0.29c1.37,0.22,2.38,0.56,3.03,1.02s0.97,1.06,0.97,1.81c0,0.96-0.39,1.7-1.18,2.22s-1.92,0.78-3.4,0.78
		c-1.4,0-2.51-0.24-3.34-0.73s-1.24-1.14-1.24-1.96c0-1.16,0.8-1.96,2.39-2.4c-0.69-0.3-1.04-0.69-1.04-1.18
		c0-0.64,0.52-1.08,1.56-1.32v-0.04c-0.71-0.2-1.27-0.54-1.69-1.04s-0.63-1.09-0.63-1.76c0-0.98,0.37-1.78,1.11-2.38
		s1.71-0.9,2.91-0.9H308.13z M301.05,44.8c0,0.81,0.81,1.22,2.44,1.22c0.7,0,1.25-0.11,1.66-0.34s0.6-0.52,0.6-0.88
		c0-0.4-0.23-0.71-0.68-0.91s-1.09-0.31-1.92-0.31c-0.62,0-1.12,0.12-1.51,0.35S301.05,44.45,301.05,44.8z M301.63,37.18
		c0,0.48,0.17,0.87,0.5,1.19s0.74,0.47,1.23,0.47c0.5,0,0.9-0.16,1.22-0.49s0.48-0.74,0.48-1.25c0-0.45-0.17-0.83-0.5-1.13
		s-0.73-0.45-1.2-0.45c-0.48,0-0.89,0.16-1.23,0.49S301.63,36.73,301.63,37.18z"/>
</g>
<g>
	<rect x="215.5" y="2" class="st29" width="1" height="71"/>
</g>
</svg>
